<mxfile host="app.diagrams.net" modified="2023-10-04T04:12:32.038Z" agent="Mozilla/5.0 (Macintosh; Intel Mac OS X 10_15_7) AppleWebKit/537.36 (KHTML, like Gecko) Chrome/117.0.0.0 Safari/537.36" etag="nNPml8NbgzJ0GLme5APt" version="21.7.5" type="github">
  <diagram name="Halaman-1" id="tXpm29j5X0EapLzBEl77">
    <mxGraphModel dx="1194" dy="792" grid="1" gridSize="10" guides="1" tooltips="1" connect="1" arrows="1" fold="1" page="1" pageScale="1" pageWidth="827" pageHeight="1169" math="0" shadow="0">
      <root>
        <mxCell id="0" />
        <mxCell id="1" parent="0" />
        <mxCell id="FzKvRD035QzzhIuIQSBb-24" style="edgeStyle=orthogonalEdgeStyle;rounded=0;orthogonalLoop=1;jettySize=auto;html=1;exitX=0.5;exitY=1;exitDx=0;exitDy=0;entryX=0.5;entryY=0;entryDx=0;entryDy=0;" parent="1" source="FzKvRD035QzzhIuIQSBb-7" target="FzKvRD035QzzhIuIQSBb-23" edge="1">
          <mxGeometry relative="1" as="geometry" />
        </mxCell>
        <mxCell id="FzKvRD035QzzhIuIQSBb-7" value="&lt;div style=&quot;font-size: 10px;&quot;&gt;&lt;span style=&quot;font-size: 10px; background-color: initial;&quot;&gt;Menu :&lt;/span&gt;&lt;/div&gt;&lt;font style=&quot;font-size: 10px;&quot;&gt;&lt;div style=&quot;font-size: 10px;&quot;&gt;&lt;span style=&quot;background-color: initial; font-size: 10px;&quot;&gt;1. Data Kirim Harian&lt;/span&gt;&lt;/div&gt;&lt;div style=&quot;font-size: 10px;&quot;&gt;&lt;span style=&quot;background-color: initial; font-size: 10px;&quot;&gt;2. Rekap Distribusi&lt;/span&gt;&lt;/div&gt;&lt;/font&gt;" style="rounded=0;whiteSpace=wrap;html=1;align=center;fontSize=10;" parent="1" vertex="1">
          <mxGeometry x="210" y="260" width="140" height="40" as="geometry" />
        </mxCell>
        <mxCell id="FzKvRD035QzzhIuIQSBb-21" value="Rekap Distribusi Koran" style="rounded=0;whiteSpace=wrap;html=1;fontSize=10;" parent="1" vertex="1">
          <mxGeometry x="385" y="397" width="110" height="30" as="geometry" />
        </mxCell>
        <mxCell id="FzKvRD035QzzhIuIQSBb-31" style="edgeStyle=orthogonalEdgeStyle;rounded=0;orthogonalLoop=1;jettySize=auto;html=1;exitX=0.5;exitY=1;exitDx=0;exitDy=0;entryX=0;entryY=0.5;entryDx=0;entryDy=0;entryPerimeter=0;" parent="1" source="FzKvRD035QzzhIuIQSBb-22" target="4yOiG1vLmg0doRlQphx1-11" edge="1">
          <mxGeometry relative="1" as="geometry">
            <mxPoint x="305" y="492" as="targetPoint" />
          </mxGeometry>
        </mxCell>
        <mxCell id="FzKvRD035QzzhIuIQSBb-22" value="Edit&lt;br&gt;Data Kirim Harian" style="rounded=0;whiteSpace=wrap;html=1;fontSize=10;" parent="1" vertex="1">
          <mxGeometry x="230" y="397" width="100" height="30" as="geometry" />
        </mxCell>
        <mxCell id="FzKvRD035QzzhIuIQSBb-25" style="edgeStyle=orthogonalEdgeStyle;rounded=0;orthogonalLoop=1;jettySize=auto;html=1;exitX=0.5;exitY=1;exitDx=0;exitDy=0;" parent="1" source="FzKvRD035QzzhIuIQSBb-23" target="FzKvRD035QzzhIuIQSBb-22" edge="1">
          <mxGeometry relative="1" as="geometry" />
        </mxCell>
        <mxCell id="FzKvRD035QzzhIuIQSBb-26" value="Y" style="edgeLabel;html=1;align=center;verticalAlign=middle;resizable=0;points=[];" parent="FzKvRD035QzzhIuIQSBb-25" vertex="1" connectable="0">
          <mxGeometry x="-0.2389" y="-1" relative="1" as="geometry">
            <mxPoint as="offset" />
          </mxGeometry>
        </mxCell>
        <mxCell id="FzKvRD035QzzhIuIQSBb-35" style="edgeStyle=orthogonalEdgeStyle;rounded=0;orthogonalLoop=1;jettySize=auto;html=1;exitX=1;exitY=0.5;exitDx=0;exitDy=0;entryX=0;entryY=0.5;entryDx=0;entryDy=0;" parent="1" source="FzKvRD035QzzhIuIQSBb-23" target="FzKvRD035QzzhIuIQSBb-34" edge="1">
          <mxGeometry relative="1" as="geometry" />
        </mxCell>
        <mxCell id="FzKvRD035QzzhIuIQSBb-40" value="T" style="edgeLabel;html=1;align=center;verticalAlign=middle;resizable=0;points=[];" parent="FzKvRD035QzzhIuIQSBb-35" vertex="1" connectable="0">
          <mxGeometry x="-0.0163" y="-1" relative="1" as="geometry">
            <mxPoint as="offset" />
          </mxGeometry>
        </mxCell>
        <mxCell id="FzKvRD035QzzhIuIQSBb-23" value="1?" style="rhombus;whiteSpace=wrap;html=1;fontSize=10;" parent="1" vertex="1">
          <mxGeometry x="255" y="327" width="50" height="30" as="geometry" />
        </mxCell>
        <mxCell id="FzKvRD035QzzhIuIQSBb-32" style="edgeStyle=orthogonalEdgeStyle;rounded=0;orthogonalLoop=1;jettySize=auto;html=1;exitX=1;exitY=0.5;exitDx=0;exitDy=0;exitPerimeter=0;entryX=0.5;entryY=1;entryDx=0;entryDy=0;" parent="1" source="4yOiG1vLmg0doRlQphx1-11" target="FzKvRD035QzzhIuIQSBb-21" edge="1">
          <mxGeometry relative="1" as="geometry">
            <mxPoint x="395" y="492" as="sourcePoint" />
          </mxGeometry>
        </mxCell>
        <mxCell id="FzKvRD035QzzhIuIQSBb-36" style="edgeStyle=orthogonalEdgeStyle;rounded=0;orthogonalLoop=1;jettySize=auto;html=1;exitX=0.5;exitY=1;exitDx=0;exitDy=0;entryX=0.5;entryY=0;entryDx=0;entryDy=0;" parent="1" source="FzKvRD035QzzhIuIQSBb-34" target="FzKvRD035QzzhIuIQSBb-21" edge="1">
          <mxGeometry relative="1" as="geometry" />
        </mxCell>
        <mxCell id="FzKvRD035QzzhIuIQSBb-42" value="Y" style="edgeLabel;html=1;align=center;verticalAlign=middle;resizable=0;points=[];" parent="FzKvRD035QzzhIuIQSBb-36" vertex="1" connectable="0">
          <mxGeometry x="-0.2944" y="-2" relative="1" as="geometry">
            <mxPoint as="offset" />
          </mxGeometry>
        </mxCell>
        <mxCell id="FzKvRD035QzzhIuIQSBb-38" style="edgeStyle=orthogonalEdgeStyle;rounded=0;orthogonalLoop=1;jettySize=auto;html=1;exitX=1;exitY=0.5;exitDx=0;exitDy=0;entryX=0;entryY=0.5;entryDx=0;entryDy=0;" parent="1" source="FzKvRD035QzzhIuIQSBb-34" target="FzKvRD035QzzhIuIQSBb-37" edge="1">
          <mxGeometry relative="1" as="geometry" />
        </mxCell>
        <mxCell id="FzKvRD035QzzhIuIQSBb-41" value="T" style="edgeLabel;html=1;align=center;verticalAlign=middle;resizable=0;points=[];" parent="FzKvRD035QzzhIuIQSBb-38" vertex="1" connectable="0">
          <mxGeometry x="0.1422" y="-1" relative="1" as="geometry">
            <mxPoint x="-14" y="-1" as="offset" />
          </mxGeometry>
        </mxCell>
        <mxCell id="FzKvRD035QzzhIuIQSBb-34" value="2?" style="rhombus;whiteSpace=wrap;html=1;fontSize=10;" parent="1" vertex="1">
          <mxGeometry x="415" y="327" width="50" height="30" as="geometry" />
        </mxCell>
        <mxCell id="FzKvRD035QzzhIuIQSBb-37" value="Selesai" style="ellipse;whiteSpace=wrap;html=1;fontSize=10;" parent="1" vertex="1">
          <mxGeometry x="515" y="332" width="50" height="20" as="geometry" />
        </mxCell>
        <mxCell id="4yOiG1vLmg0doRlQphx1-1" style="edgeStyle=orthogonalEdgeStyle;rounded=0;orthogonalLoop=1;jettySize=auto;html=1;exitX=0.5;exitY=1;exitDx=0;exitDy=0;entryX=0.5;entryY=0;entryDx=0;entryDy=0;fontSize=10;entryPerimeter=0;" edge="1" parent="1" source="4yOiG1vLmg0doRlQphx1-2" target="4yOiG1vLmg0doRlQphx1-8">
          <mxGeometry relative="1" as="geometry" />
        </mxCell>
        <mxCell id="4yOiG1vLmg0doRlQphx1-2" value="Mulai" style="ellipse;whiteSpace=wrap;html=1;fontSize=10;" vertex="1" parent="1">
          <mxGeometry x="259" y="20" width="50" height="20" as="geometry" />
        </mxCell>
        <mxCell id="4yOiG1vLmg0doRlQphx1-3" value="Y" style="edgeStyle=orthogonalEdgeStyle;rounded=0;orthogonalLoop=1;jettySize=auto;html=1;exitX=0.5;exitY=1;exitDx=0;exitDy=0;entryX=0.5;entryY=0;entryDx=0;entryDy=0;fontSize=10;" edge="1" parent="1" source="4yOiG1vLmg0doRlQphx1-6" target="FzKvRD035QzzhIuIQSBb-7">
          <mxGeometry relative="1" as="geometry">
            <mxPoint x="280" y="250" as="targetPoint" />
          </mxGeometry>
        </mxCell>
        <mxCell id="4yOiG1vLmg0doRlQphx1-4" style="edgeStyle=orthogonalEdgeStyle;rounded=0;orthogonalLoop=1;jettySize=auto;html=1;exitX=1;exitY=0.5;exitDx=0;exitDy=0;entryX=1;entryY=0.5;entryDx=0;entryDy=0;fontSize=10;entryPerimeter=0;" edge="1" parent="1" source="4yOiG1vLmg0doRlQphx1-6" target="4yOiG1vLmg0doRlQphx1-10">
          <mxGeometry relative="1" as="geometry">
            <Array as="points">
              <mxPoint x="350" y="205" />
              <mxPoint x="350" y="141" />
            </Array>
          </mxGeometry>
        </mxCell>
        <mxCell id="4yOiG1vLmg0doRlQphx1-5" value="T" style="edgeLabel;html=1;align=center;verticalAlign=middle;resizable=0;points=[];fontSize=10;" vertex="1" connectable="0" parent="4yOiG1vLmg0doRlQphx1-4">
          <mxGeometry x="-0.248" y="-3" relative="1" as="geometry">
            <mxPoint x="-3" y="-16" as="offset" />
          </mxGeometry>
        </mxCell>
        <mxCell id="4yOiG1vLmg0doRlQphx1-6" value="Login?" style="rhombus;whiteSpace=wrap;html=1;fontSize=10;" vertex="1" parent="1">
          <mxGeometry x="250" y="190" width="60" height="30" as="geometry" />
        </mxCell>
        <mxCell id="4yOiG1vLmg0doRlQphx1-7" style="edgeStyle=orthogonalEdgeStyle;rounded=0;orthogonalLoop=1;jettySize=auto;html=1;exitX=0.5;exitY=1;exitDx=0;exitDy=0;exitPerimeter=0;entryX=0.5;entryY=0;entryDx=0;entryDy=0;entryPerimeter=0;" edge="1" parent="1" source="4yOiG1vLmg0doRlQphx1-8" target="4yOiG1vLmg0doRlQphx1-10">
          <mxGeometry relative="1" as="geometry" />
        </mxCell>
        <mxCell id="4yOiG1vLmg0doRlQphx1-8" value="Landing Page" style="strokeWidth=2;html=1;shape=mxgraph.flowchart.display;whiteSpace=wrap;" vertex="1" parent="1">
          <mxGeometry x="239" y="60" width="90" height="42" as="geometry" />
        </mxCell>
        <mxCell id="4yOiG1vLmg0doRlQphx1-9" style="edgeStyle=orthogonalEdgeStyle;rounded=0;orthogonalLoop=1;jettySize=auto;html=1;entryX=0.5;entryY=0;entryDx=0;entryDy=0;" edge="1" parent="1" source="4yOiG1vLmg0doRlQphx1-10" target="4yOiG1vLmg0doRlQphx1-6">
          <mxGeometry relative="1" as="geometry" />
        </mxCell>
        <mxCell id="4yOiG1vLmg0doRlQphx1-10" value="Halaman Login" style="strokeWidth=2;html=1;shape=mxgraph.flowchart.display;whiteSpace=wrap;" vertex="1" parent="1">
          <mxGeometry x="234" y="120" width="90" height="42" as="geometry" />
        </mxCell>
        <mxCell id="4yOiG1vLmg0doRlQphx1-11" value="Basis Data" style="strokeWidth=2;html=1;shape=mxgraph.flowchart.database;whiteSpace=wrap;" vertex="1" parent="1">
          <mxGeometry x="305" y="447" width="81" height="60" as="geometry" />
        </mxCell>
      </root>
    </mxGraphModel>
  </diagram>
</mxfile>
